<svg id="visual" viewBox="0 0 900 600" width="900" height="600" xmlns="http://www.w3.org/2000/svg" xmlns:xlink="http://www.w3.org/1999/xlink" version="1.1"><rect x="0" y="0" width="900" height="600" fill="#ebebeb"></rect><defs><linearGradient id="grad1_0" x1="33.3%" y1="100%" x2="100%" y2="0%"><stop offset="20%" stop-color="#ebebeb" stop-opacity="1"></stop><stop offset="80%" stop-color="#ebebeb" stop-opacity="1"></stop></linearGradient></defs><defs><linearGradient id="grad2_0" x1="0%" y1="100%" x2="66.7%" y2="0%"><stop offset="20%" stop-color="#ebebeb" stop-opacity="1"></stop><stop offset="80%" stop-color="#ebebeb" stop-opacity="1"></stop></linearGradient></defs><g transform="translate(900, 600)"><path d="M-297.5 0C-297.1 -42.6 -296.8 -85.3 -274.8 -113.8C-252.8 -142.4 -209.2 -156.9 -178.9 -178.9C-148.6 -200.9 -131.7 -230.3 -104.1 -251.3C-76.5 -272.3 -38.2 -284.9 0 -297.5L0 0Z" fill="#cecece"></path></g><g transform="translate(0, 0)"><path d="M297.5 0C286.9 35.6 276.3 71.2 264.2 109.4C252.1 147.7 238.5 188.7 210.3 210.3C182.1 232 139.3 234.4 101.8 245.8C64.3 257.1 32.2 277.3 0 297.5L0 0Z" fill="#cecece"></path></g></svg>