<!DOCTYPE svg PUBLIC "-//W3C//DTD SVG 1.1//EN" "http://www.w3.org/Graphics/SVG/1.1/DTD/svg11.dtd">
<!-- Uploaded to: SVG Repo, www.svgrepo.com, Transformed by: SVG Repo Mixer Tools -->
<svg fill="#0049cb" version="1.1" id="Layer_1" xmlns="http://www.w3.org/2000/svg" xmlns:xlink="http://www.w3.org/1999/xlink" viewBox="-15.36 -15.36 542.72 542.72" xml:space="preserve" width="800px" height="800px" transform="rotate(90)" stroke="#0049cb" stroke-width="14.336000000000002">
<g id="SVGRepo_bgCarrier" stroke-width="0"/>
<g id="SVGRepo_tracerCarrier" stroke-linecap="round" stroke-linejoin="round"/>
<g id="SVGRepo_iconCarrier"> <g> <g> <path d="M437.021,74.979C388.669,26.628,324.381,0,256,0S123.331,26.628,74.979,74.979C26.627,123.33,0,187.619,0,256 s26.628,132.669,74.979,181.021C123.33,485.373,187.619,512,256,512s132.669-26.628,181.021-74.979S512,324.381,512,256 S485.372,123.331,437.021,74.979z M86.176,86.176C131.538,40.816,191.848,15.835,256,15.835s124.462,24.981,169.824,70.341 c43.488,43.489,68.229,100.723,70.198,161.906H372.919l-27.36,45.601l-65.028-102.961l-50.855,137.308l-61.647-169.529 l-53.749,89.581H15.979C17.947,186.899,42.687,129.666,86.176,86.176z M425.824,425.824 c-45.361,45.36-105.672,70.341-169.824,70.341s-124.462-24.981-169.824-70.341c-43.489-43.489-68.229-100.723-70.198-161.906 h107.268l41.261-68.768l65.034,178.842l54.712-147.723l61.652,97.617l35.98-59.967h114.137 C494.053,325.101,469.313,382.334,425.824,425.824z"/> </g> </g> <g> <g> <rect x="245.443" y="42.227" width="21.113" height="15.835"/> </g> </g> <g> <g> <rect x="245.443" y="453.938" width="21.113" height="15.835"/> </g> </g> </g>
</svg>